<svg id="visual" viewBox="0 0 900 600" width="900" height="600" xmlns="http://www.w3.org/2000/svg" xmlns:xlink="http://www.w3.org/1999/xlink" version="1.1"><g stroke-width="1" stroke-linejoin="bevel"><path d="M491 321L560 323L531 222Z" fill="#00101c" stroke="#00101c"></path><path d="M560 323L586 192L531 222Z" fill="#1d4e6b" stroke="#1d4e6b"></path><path d="M376 214L407 273L531 222Z" fill="#112e42" stroke="#112e42"></path><path d="M531 222L407 273L491 321Z" fill="#19435d" stroke="#19435d"></path><path d="M474 425L613 387L560 323Z" fill="#1d4e6b" stroke="#1d4e6b"></path><path d="M560 323L698 289L586 192Z" fill="#0c2435" stroke="#0c2435"></path><path d="M417 410L474 425L491 321Z" fill="#246688" stroke="#246688"></path><path d="M491 321L474 425L560 323Z" fill="#205a7a" stroke="#205a7a"></path><path d="M586 192L530 117L531 222Z" fill="#112e42" stroke="#112e42"></path><path d="M530 117L376 214L531 222Z" fill="#112e42" stroke="#112e42"></path><path d="M407 273L417 410L491 321Z" fill="#112e42" stroke="#112e42"></path><path d="M613 387L698 289L560 323Z" fill="#15384f" stroke="#15384f"></path><path d="M586 192L602 83L530 117Z" fill="#246688" stroke="#246688"></path><path d="M386 472L417 410L261 375Z" fill="#00101c" stroke="#00101c"></path><path d="M698 289L707 219L586 192Z" fill="#081a28" stroke="#081a28"></path><path d="M666 74L602 83L586 192Z" fill="#0c2435" stroke="#0c2435"></path><path d="M580 517L697 434L613 387Z" fill="#277297" stroke="#277297"></path><path d="M613 387L697 434L698 289Z" fill="#205a7a" stroke="#205a7a"></path><path d="M698 289L769 314L707 219Z" fill="#15384f" stroke="#15384f"></path><path d="M417 410L386 472L474 425Z" fill="#205a7a" stroke="#205a7a"></path><path d="M474 425L580 517L613 387Z" fill="#15384f" stroke="#15384f"></path><path d="M284 304L417 410L407 273Z" fill="#081a28" stroke="#081a28"></path><path d="M386 472L479 517L474 425Z" fill="#0c2435" stroke="#0c2435"></path><path d="M376 214L284 304L407 273Z" fill="#081a28" stroke="#081a28"></path><path d="M764 373L769 314L698 289Z" fill="#297ea6" stroke="#297ea6"></path><path d="M479 517L580 517L474 425Z" fill="#15384f" stroke="#15384f"></path><path d="M377 60L308 166L376 214Z" fill="#297ea6" stroke="#297ea6"></path><path d="M376 214L308 166L284 304Z" fill="#1d4e6b" stroke="#1d4e6b"></path><path d="M377 60L376 214L530 117Z" fill="#15384f" stroke="#15384f"></path><path d="M764 181L666 74L707 219Z" fill="#15384f" stroke="#15384f"></path><path d="M707 219L666 74L586 192Z" fill="#205a7a" stroke="#205a7a"></path><path d="M697 434L764 373L698 289Z" fill="#297ea6" stroke="#297ea6"></path><path d="M769 314L764 181L707 219Z" fill="#277297" stroke="#277297"></path><path d="M500 0L530 117L602 83Z" fill="#246688" stroke="#246688"></path><path d="M500 0L377 60L530 117Z" fill="#1d4e6b" stroke="#1d4e6b"></path><path d="M639 0L500 0L602 83Z" fill="#19435d" stroke="#19435d"></path><path d="M191 321L261 375L284 304Z" fill="#112e42" stroke="#112e42"></path><path d="M284 304L261 375L417 410Z" fill="#112e42" stroke="#112e42"></path><path d="M666 74L639 0L602 83Z" fill="#00101c" stroke="#00101c"></path><path d="M731 0L639 0L666 74Z" fill="#277297" stroke="#277297"></path><path d="M500 0L414 0L377 60Z" fill="#15384f" stroke="#15384f"></path><path d="M377 60L296 79L308 166Z" fill="#081a28" stroke="#081a28"></path><path d="M273 0L296 79L377 60Z" fill="#19435d" stroke="#19435d"></path><path d="M184 165L191 321L284 304Z" fill="#297ea6" stroke="#297ea6"></path><path d="M580 517L713 525L697 434Z" fill="#205a7a" stroke="#205a7a"></path><path d="M697 434L816 492L764 373Z" fill="#19435d" stroke="#19435d"></path><path d="M618 600L713 525L580 517Z" fill="#277297" stroke="#277297"></path><path d="M900 171L786 105L764 181Z" fill="#112e42" stroke="#112e42"></path><path d="M764 181L786 105L666 74Z" fill="#19435d" stroke="#19435d"></path><path d="M424 600L469 600L479 517Z" fill="#15384f" stroke="#15384f"></path><path d="M479 517L469 600L580 517Z" fill="#297ea6" stroke="#297ea6"></path><path d="M424 600L479 517L386 472Z" fill="#0c2435" stroke="#0c2435"></path><path d="M469 600L618 600L580 517Z" fill="#00101c" stroke="#00101c"></path><path d="M323 600L424 600L386 472Z" fill="#19435d" stroke="#19435d"></path><path d="M184 165L284 304L308 166Z" fill="#081a28" stroke="#081a28"></path><path d="M261 375L275 525L386 472Z" fill="#1d4e6b" stroke="#1d4e6b"></path><path d="M786 105L731 0L666 74Z" fill="#1d4e6b" stroke="#1d4e6b"></path><path d="M236 0L227 92L296 79Z" fill="#0c2435" stroke="#0c2435"></path><path d="M296 79L227 92L308 166Z" fill="#19435d" stroke="#19435d"></path><path d="M204 480L275 525L261 375Z" fill="#112e42" stroke="#112e42"></path><path d="M618 600L684 600L713 525Z" fill="#205a7a" stroke="#205a7a"></path><path d="M767 600L816 492L713 525Z" fill="#112e42" stroke="#112e42"></path><path d="M713 525L816 492L697 434Z" fill="#15384f" stroke="#15384f"></path><path d="M900 384L900 260L769 314Z" fill="#205a7a" stroke="#205a7a"></path><path d="M769 314L900 260L764 181Z" fill="#00101c" stroke="#00101c"></path><path d="M227 92L184 165L308 166Z" fill="#15384f" stroke="#15384f"></path><path d="M786 105L767 0L731 0Z" fill="#246688" stroke="#246688"></path><path d="M900 384L769 314L764 373Z" fill="#19435d" stroke="#19435d"></path><path d="M786 105L900 61L767 0Z" fill="#205a7a" stroke="#205a7a"></path><path d="M116 264L168 383L191 321Z" fill="#00101c" stroke="#00101c"></path><path d="M191 321L168 383L261 375Z" fill="#0c2435" stroke="#0c2435"></path><path d="M414 0L273 0L377 60Z" fill="#246688" stroke="#246688"></path><path d="M84 130L106 196L184 165Z" fill="#1d4e6b" stroke="#1d4e6b"></path><path d="M168 383L204 480L261 375Z" fill="#0c2435" stroke="#0c2435"></path><path d="M222 600L323 600L275 525Z" fill="#277297" stroke="#277297"></path><path d="M275 525L323 600L386 472Z" fill="#19435d" stroke="#19435d"></path><path d="M816 492L900 384L764 373Z" fill="#246688" stroke="#246688"></path><path d="M900 260L900 171L764 181Z" fill="#277297" stroke="#277297"></path><path d="M684 600L767 600L713 525Z" fill="#112e42" stroke="#112e42"></path><path d="M816 492L900 516L900 384Z" fill="#0c2435" stroke="#0c2435"></path><path d="M273 0L236 0L296 79Z" fill="#081a28" stroke="#081a28"></path><path d="M106 196L116 264L184 165Z" fill="#19435d" stroke="#19435d"></path><path d="M184 165L116 264L191 321Z" fill="#0c2435" stroke="#0c2435"></path><path d="M168 383L114 432L204 480Z" fill="#277297" stroke="#277297"></path><path d="M84 130L184 165L227 92Z" fill="#081a28" stroke="#081a28"></path><path d="M900 171L900 61L786 105Z" fill="#205a7a" stroke="#205a7a"></path><path d="M116 264L114 432L168 383Z" fill="#0c2435" stroke="#0c2435"></path><path d="M204 480L222 600L275 525Z" fill="#112e42" stroke="#112e42"></path><path d="M93 508L114 432L0 480Z" fill="#205a7a" stroke="#205a7a"></path><path d="M900 600L900 516L816 492Z" fill="#00101c" stroke="#00101c"></path><path d="M104 600L222 600L204 480Z" fill="#246688" stroke="#246688"></path><path d="M900 61L900 0L767 0Z" fill="#205a7a" stroke="#205a7a"></path><path d="M124 0L84 130L227 92Z" fill="#297ea6" stroke="#297ea6"></path><path d="M106 196L0 270L116 264Z" fill="#246688" stroke="#246688"></path><path d="M236 0L124 0L227 92Z" fill="#00101c" stroke="#00101c"></path><path d="M0 389L114 432L116 264Z" fill="#277297" stroke="#277297"></path><path d="M114 432L93 508L204 480Z" fill="#1d4e6b" stroke="#1d4e6b"></path><path d="M767 600L900 600L816 492Z" fill="#205a7a" stroke="#205a7a"></path><path d="M0 161L106 196L84 130Z" fill="#0c2435" stroke="#0c2435"></path><path d="M0 161L0 270L106 196Z" fill="#0c2435" stroke="#0c2435"></path><path d="M0 600L104 600L93 508Z" fill="#15384f" stroke="#15384f"></path><path d="M93 508L104 600L204 480Z" fill="#297ea6" stroke="#297ea6"></path><path d="M0 270L0 389L116 264Z" fill="#19435d" stroke="#19435d"></path><path d="M0 108L0 161L84 130Z" fill="#1d4e6b" stroke="#1d4e6b"></path><path d="M0 0L0 108L84 130Z" fill="#15384f" stroke="#15384f"></path><path d="M0 389L0 480L114 432Z" fill="#277297" stroke="#277297"></path><path d="M124 0L0 0L84 130Z" fill="#00101c" stroke="#00101c"></path><path d="M0 480L0 600L93 508Z" fill="#277297" stroke="#277297"></path></g></svg>