<svg id="visual" viewBox="0 0 675 1200" width="675" height="1200" xmlns="http://www.w3.org/2000/svg" xmlns:xlink="http://www.w3.org/1999/xlink" version="1.1"><g stroke-width="1" stroke-linejoin="bevel"><path d="M337 588L311 547L324 591Z" fill="#00101c" stroke="#00101c"></path><path d="M311 547L254 609L324 591Z" fill="#19435d" stroke="#19435d"></path><path d="M324 591L308 648L337 588Z" fill="#081a28" stroke="#081a28"></path><path d="M254 609L308 648L324 591Z" fill="#1d4e6b" stroke="#1d4e6b"></path><path d="M437 599L408 535L337 588Z" fill="#246688" stroke="#246688"></path><path d="M337 588L408 535L311 547Z" fill="#297ea6" stroke="#297ea6"></path><path d="M308 648L387 665L337 588Z" fill="#246688" stroke="#246688"></path><path d="M387 665L437 599L337 588Z" fill="#205a7a" stroke="#205a7a"></path><path d="M408 535L337 429L311 547Z" fill="#297ea6" stroke="#297ea6"></path><path d="M311 547L186 535L254 609Z" fill="#297ea6" stroke="#297ea6"></path><path d="M188 472L186 535L311 547Z" fill="#00101c" stroke="#00101c"></path><path d="M422 447L400 444L408 535Z" fill="#081a28" stroke="#081a28"></path><path d="M408 535L400 444L337 429Z" fill="#1d4e6b" stroke="#1d4e6b"></path><path d="M473 507L422 447L408 535Z" fill="#081a28" stroke="#081a28"></path><path d="M400 444L370 347L337 429Z" fill="#00101c" stroke="#00101c"></path><path d="M239 712L314 722L308 648Z" fill="#205a7a" stroke="#205a7a"></path><path d="M308 648L314 722L387 665Z" fill="#1d4e6b" stroke="#1d4e6b"></path><path d="M239 712L308 648L254 609Z" fill="#112e42" stroke="#112e42"></path><path d="M437 599L473 507L408 535Z" fill="#15384f" stroke="#15384f"></path><path d="M186 535L177 642L254 609Z" fill="#246688" stroke="#246688"></path><path d="M242 408L188 472L311 547Z" fill="#19435d" stroke="#19435d"></path><path d="M186 535L149 627L177 642Z" fill="#1d4e6b" stroke="#1d4e6b"></path><path d="M189 685L239 712L254 609Z" fill="#112e42" stroke="#112e42"></path><path d="M386 787L444 690L387 665Z" fill="#246688" stroke="#246688"></path><path d="M387 665L444 690L437 599Z" fill="#277297" stroke="#277297"></path><path d="M437 599L537 544L473 507Z" fill="#15384f" stroke="#15384f"></path><path d="M334 338L242 408L337 429Z" fill="#00101c" stroke="#00101c"></path><path d="M337 429L242 408L311 547Z" fill="#297ea6" stroke="#297ea6"></path><path d="M177 642L189 685L254 609Z" fill="#112e42" stroke="#112e42"></path><path d="M146 505L149 627L186 535Z" fill="#0c2435" stroke="#0c2435"></path><path d="M177 642L149 627L189 685Z" fill="#246688" stroke="#246688"></path><path d="M139 423L146 505L188 472Z" fill="#15384f" stroke="#15384f"></path><path d="M188 472L146 505L186 535Z" fill="#1d4e6b" stroke="#1d4e6b"></path><path d="M562 611L537 544L437 599Z" fill="#19435d" stroke="#19435d"></path><path d="M473 507L520 402L422 447Z" fill="#277297" stroke="#277297"></path><path d="M386 787L465 731L444 690Z" fill="#00101c" stroke="#00101c"></path><path d="M444 690L551 650L437 599Z" fill="#297ea6" stroke="#297ea6"></path><path d="M489 369L370 347L422 447Z" fill="#15384f" stroke="#15384f"></path><path d="M422 447L370 347L400 444Z" fill="#277297" stroke="#277297"></path><path d="M371 818L386 787L314 722Z" fill="#19435d" stroke="#19435d"></path><path d="M314 722L386 787L387 665Z" fill="#205a7a" stroke="#205a7a"></path><path d="M370 347L334 338L337 429Z" fill="#205a7a" stroke="#205a7a"></path><path d="M370 347L354 338L334 338Z" fill="#205a7a" stroke="#205a7a"></path><path d="M162 359L139 423L242 408Z" fill="#19435d" stroke="#19435d"></path><path d="M242 408L139 423L188 472Z" fill="#246688" stroke="#246688"></path><path d="M146 505L67 544L149 627Z" fill="#205a7a" stroke="#205a7a"></path><path d="M465 731L551 650L444 690Z" fill="#112e42" stroke="#112e42"></path><path d="M551 650L562 611L437 599Z" fill="#1d4e6b" stroke="#1d4e6b"></path><path d="M584 499L555 480L537 544Z" fill="#1d4e6b" stroke="#1d4e6b"></path><path d="M537 544L555 480L473 507Z" fill="#246688" stroke="#246688"></path><path d="M551 650L561 636L562 611Z" fill="#1d4e6b" stroke="#1d4e6b"></path><path d="M555 480L520 402L473 507Z" fill="#15384f" stroke="#15384f"></path><path d="M370 347L403 236L354 338Z" fill="#112e42" stroke="#112e42"></path><path d="M283 819L371 818L314 722Z" fill="#297ea6" stroke="#297ea6"></path><path d="M386 787L483 787L465 731Z" fill="#0c2435" stroke="#0c2435"></path><path d="M283 819L314 722L239 712Z" fill="#205a7a" stroke="#205a7a"></path><path d="M194 805L283 819L239 712Z" fill="#112e42" stroke="#112e42"></path><path d="M520 402L489 369L422 447Z" fill="#1d4e6b" stroke="#1d4e6b"></path><path d="M83 431L67 544L146 505Z" fill="#112e42" stroke="#112e42"></path><path d="M149 627L112 723L189 685Z" fill="#246688" stroke="#246688"></path><path d="M189 685L194 805L239 712Z" fill="#00101c" stroke="#00101c"></path><path d="M600 721L577 638L551 650Z" fill="#081a28" stroke="#081a28"></path><path d="M551 650L577 638L561 636Z" fill="#205a7a" stroke="#205a7a"></path><path d="M561 636L577 638L562 611Z" fill="#246688" stroke="#246688"></path><path d="M562 611L584 499L537 544Z" fill="#277297" stroke="#277297"></path><path d="M600 721L551 650L465 731Z" fill="#00101c" stroke="#00101c"></path><path d="M67 544L65 604L149 627Z" fill="#19435d" stroke="#19435d"></path><path d="M320 214L273 309L334 338Z" fill="#246688" stroke="#246688"></path><path d="M334 338L273 309L242 408Z" fill="#297ea6" stroke="#297ea6"></path><path d="M320 214L334 338L354 338Z" fill="#081a28" stroke="#081a28"></path><path d="M222 286L162 359L242 408Z" fill="#297ea6" stroke="#297ea6"></path><path d="M139 423L83 431L146 505Z" fill="#19435d" stroke="#19435d"></path><path d="M46 702L112 723L149 627Z" fill="#205a7a" stroke="#205a7a"></path><path d="M675 533L584 499L562 611Z" fill="#205a7a" stroke="#205a7a"></path><path d="M555 480L574 397L520 402Z" fill="#19435d" stroke="#19435d"></path><path d="M371 818L483 787L386 787Z" fill="#19435d" stroke="#19435d"></path><path d="M112 723L194 805L189 685Z" fill="#246688" stroke="#246688"></path><path d="M113 378L83 431L139 423Z" fill="#0c2435" stroke="#0c2435"></path><path d="M530 315L480 336L489 369Z" fill="#19435d" stroke="#19435d"></path><path d="M489 369L480 336L370 347Z" fill="#00101c" stroke="#00101c"></path><path d="M530 315L489 369L520 402Z" fill="#297ea6" stroke="#297ea6"></path><path d="M521 855L502 787L483 787Z" fill="#112e42" stroke="#112e42"></path><path d="M483 787L502 787L465 731Z" fill="#205a7a" stroke="#205a7a"></path><path d="M162 295L113 378L162 359Z" fill="#297ea6" stroke="#297ea6"></path><path d="M162 359L113 378L139 423Z" fill="#081a28" stroke="#081a28"></path><path d="M320 214L222 286L273 309Z" fill="#112e42" stroke="#112e42"></path><path d="M273 309L222 286L242 408Z" fill="#112e42" stroke="#112e42"></path><path d="M91 813L180 830L194 805Z" fill="#277297" stroke="#277297"></path><path d="M194 805L216 867L283 819Z" fill="#1d4e6b" stroke="#1d4e6b"></path><path d="M283 819L363 890L371 818Z" fill="#00101c" stroke="#00101c"></path><path d="M617 448L574 397L555 480Z" fill="#00101c" stroke="#00101c"></path><path d="M65 604L46 702L149 627Z" fill="#205a7a" stroke="#205a7a"></path><path d="M112 723L91 813L194 805Z" fill="#00101c" stroke="#00101c"></path><path d="M0 606L46 702L65 604Z" fill="#19435d" stroke="#19435d"></path><path d="M584 499L617 448L555 480Z" fill="#246688" stroke="#246688"></path><path d="M675 462L617 448L584 499Z" fill="#277297" stroke="#277297"></path><path d="M502 787L600 721L465 731Z" fill="#246688" stroke="#246688"></path><path d="M675 601L675 533L562 611Z" fill="#277297" stroke="#277297"></path><path d="M222 286L162 295L162 359Z" fill="#297ea6" stroke="#297ea6"></path><path d="M150 930L216 867L180 830Z" fill="#1d4e6b" stroke="#1d4e6b"></path><path d="M180 830L216 867L194 805Z" fill="#0c2435" stroke="#0c2435"></path><path d="M463 929L521 855L483 787Z" fill="#277297" stroke="#277297"></path><path d="M46 702L58 742L112 723Z" fill="#112e42" stroke="#112e42"></path><path d="M556 250L530 315L629 279Z" fill="#277297" stroke="#277297"></path><path d="M574 397L530 315L520 402Z" fill="#081a28" stroke="#081a28"></path><path d="M480 336L403 236L370 347Z" fill="#15384f" stroke="#15384f"></path><path d="M337 909L363 890L283 819Z" fill="#112e42" stroke="#112e42"></path><path d="M502 787L624 861L600 721Z" fill="#112e42" stroke="#112e42"></path><path d="M0 507L0 606L67 544Z" fill="#277297" stroke="#277297"></path><path d="M67 544L0 606L65 604Z" fill="#205a7a" stroke="#205a7a"></path><path d="M46 702L0 765L58 742Z" fill="#277297" stroke="#277297"></path><path d="M0 440L0 507L83 431Z" fill="#297ea6" stroke="#297ea6"></path><path d="M83 431L0 507L67 544Z" fill="#205a7a" stroke="#205a7a"></path><path d="M0 440L83 431L0 388Z" fill="#277297" stroke="#277297"></path><path d="M466 243L403 236L480 336Z" fill="#277297" stroke="#277297"></path><path d="M222 286L213 223L162 295Z" fill="#081a28" stroke="#081a28"></path><path d="M58 742L91 813L112 723Z" fill="#277297" stroke="#277297"></path><path d="M216 867L337 909L283 819Z" fill="#297ea6" stroke="#297ea6"></path><path d="M463 929L483 787L371 818Z" fill="#1d4e6b" stroke="#1d4e6b"></path><path d="M530 865L521 855L463 929Z" fill="#297ea6" stroke="#297ea6"></path><path d="M0 388L83 431L113 378Z" fill="#246688" stroke="#246688"></path><path d="M0 606L0 697L46 702Z" fill="#19435d" stroke="#19435d"></path><path d="M58 742L0 765L91 813Z" fill="#15384f" stroke="#15384f"></path><path d="M675 601L562 611L577 638Z" fill="#081a28" stroke="#081a28"></path><path d="M617 448L675 354L574 397Z" fill="#1d4e6b" stroke="#1d4e6b"></path><path d="M675 641L577 638L600 721Z" fill="#0c2435" stroke="#0c2435"></path><path d="M675 641L675 601L577 638Z" fill="#00101c" stroke="#00101c"></path><path d="M403 236L320 214L354 338Z" fill="#246688" stroke="#246688"></path><path d="M530 315L466 243L480 336Z" fill="#0c2435" stroke="#0c2435"></path><path d="M395 126L292 135L320 214Z" fill="#19435d" stroke="#19435d"></path><path d="M675 787L675 641L600 721Z" fill="#0c2435" stroke="#0c2435"></path><path d="M320 214L213 223L222 286Z" fill="#277297" stroke="#277297"></path><path d="M162 295L113 258L113 378Z" fill="#19435d" stroke="#19435d"></path><path d="M463 929L371 818L363 890Z" fill="#112e42" stroke="#112e42"></path><path d="M521 855L624 861L502 787Z" fill="#297ea6" stroke="#297ea6"></path><path d="M675 533L675 462L584 499Z" fill="#112e42" stroke="#112e42"></path><path d="M530 315L556 250L466 243Z" fill="#205a7a" stroke="#205a7a"></path><path d="M213 223L135 250L162 295Z" fill="#19435d" stroke="#19435d"></path><path d="M0 324L0 388L113 378Z" fill="#1d4e6b" stroke="#1d4e6b"></path><path d="M135 250L113 258L162 295Z" fill="#297ea6" stroke="#297ea6"></path><path d="M0 697L0 765L46 702Z" fill="#246688" stroke="#246688"></path><path d="M216 867L324 948L337 909Z" fill="#297ea6" stroke="#297ea6"></path><path d="M337 909L342 956L363 890Z" fill="#297ea6" stroke="#297ea6"></path><path d="M259 1000L324 948L216 867Z" fill="#081a28" stroke="#081a28"></path><path d="M150 930L180 830L91 813Z" fill="#246688" stroke="#246688"></path><path d="M342 956L463 929L363 890Z" fill="#00101c" stroke="#00101c"></path><path d="M324 948L342 956L337 909Z" fill="#00101c" stroke="#00101c"></path><path d="M629 279L530 315L574 397Z" fill="#277297" stroke="#277297"></path><path d="M292 135L237 182L320 214Z" fill="#0c2435" stroke="#0c2435"></path><path d="M213 223L176 141L135 250Z" fill="#277297" stroke="#277297"></path><path d="M135 250L35 165L113 258Z" fill="#205a7a" stroke="#205a7a"></path><path d="M320 214L237 182L213 223Z" fill="#246688" stroke="#246688"></path><path d="M484 174L403 236L466 243Z" fill="#246688" stroke="#246688"></path><path d="M113 258L45 286L113 378Z" fill="#297ea6" stroke="#297ea6"></path><path d="M0 211L45 286L113 258Z" fill="#0c2435" stroke="#0c2435"></path><path d="M463 929L565 887L530 865Z" fill="#205a7a" stroke="#205a7a"></path><path d="M530 865L624 861L521 855Z" fill="#205a7a" stroke="#205a7a"></path><path d="M65 907L150 930L91 813Z" fill="#081a28" stroke="#081a28"></path><path d="M324 948L259 1000L342 956Z" fill="#297ea6" stroke="#297ea6"></path><path d="M45 286L0 324L113 378Z" fill="#246688" stroke="#246688"></path><path d="M675 462L675 354L617 448Z" fill="#1d4e6b" stroke="#1d4e6b"></path><path d="M624 861L675 787L600 721Z" fill="#19435d" stroke="#19435d"></path><path d="M675 354L629 279L574 397Z" fill="#1d4e6b" stroke="#1d4e6b"></path><path d="M565 887L624 861L530 865Z" fill="#205a7a" stroke="#205a7a"></path><path d="M675 354L675 330L629 279Z" fill="#15384f" stroke="#15384f"></path><path d="M510 147L484 174L556 250Z" fill="#277297" stroke="#277297"></path><path d="M556 250L484 174L466 243Z" fill="#0c2435" stroke="#0c2435"></path><path d="M74 965L171 963L150 930Z" fill="#246688" stroke="#246688"></path><path d="M150 930L171 963L216 867Z" fill="#15384f" stroke="#15384f"></path><path d="M0 849L65 907L91 813Z" fill="#15384f" stroke="#15384f"></path><path d="M0 765L0 849L91 813Z" fill="#1d4e6b" stroke="#1d4e6b"></path><path d="M395 126L320 214L403 236Z" fill="#081a28" stroke="#081a28"></path><path d="M237 182L176 141L213 223Z" fill="#19435d" stroke="#19435d"></path><path d="M171 963L259 1000L216 867Z" fill="#246688" stroke="#246688"></path><path d="M342 956L460 993L463 929Z" fill="#246688" stroke="#246688"></path><path d="M675 191L607 227L629 279Z" fill="#297ea6" stroke="#297ea6"></path><path d="M629 279L607 227L556 250Z" fill="#297ea6" stroke="#297ea6"></path><path d="M484 174L395 126L403 236Z" fill="#00101c" stroke="#00101c"></path><path d="M464 92L395 126L484 174Z" fill="#081a28" stroke="#081a28"></path><path d="M463 929L526 997L565 887Z" fill="#1d4e6b" stroke="#1d4e6b"></path><path d="M675 949L675 864L624 861Z" fill="#205a7a" stroke="#205a7a"></path><path d="M348 1072L460 993L342 956Z" fill="#205a7a" stroke="#205a7a"></path><path d="M675 864L675 848L624 861Z" fill="#297ea6" stroke="#297ea6"></path><path d="M624 861L675 848L675 787Z" fill="#19435d" stroke="#19435d"></path><path d="M203 81L237 182L292 135Z" fill="#246688" stroke="#246688"></path><path d="M203 81L176 141L237 182Z" fill="#00101c" stroke="#00101c"></path><path d="M45 286L0 211L0 324Z" fill="#1d4e6b" stroke="#1d4e6b"></path><path d="M607 227L510 147L556 250Z" fill="#081a28" stroke="#081a28"></path><path d="M609 986L624 861L565 887Z" fill="#00101c" stroke="#00101c"></path><path d="M65 907L74 965L150 930Z" fill="#112e42" stroke="#112e42"></path><path d="M211 1076L315 1075L259 1000Z" fill="#0c2435" stroke="#0c2435"></path><path d="M0 927L74 965L65 907Z" fill="#112e42" stroke="#112e42"></path><path d="M510 1026L526 997L460 993Z" fill="#297ea6" stroke="#297ea6"></path><path d="M460 993L526 997L463 929Z" fill="#15384f" stroke="#15384f"></path><path d="M35 165L0 211L113 258Z" fill="#246688" stroke="#246688"></path><path d="M0 849L0 927L65 907Z" fill="#112e42" stroke="#112e42"></path><path d="M556 98L464 92L510 147Z" fill="#112e42" stroke="#112e42"></path><path d="M510 147L464 92L484 174Z" fill="#00101c" stroke="#00101c"></path><path d="M395 126L364 71L292 135Z" fill="#205a7a" stroke="#205a7a"></path><path d="M462 1087L510 1026L460 993Z" fill="#297ea6" stroke="#297ea6"></path><path d="M526 997L609 986L565 887Z" fill="#081a28" stroke="#081a28"></path><path d="M176 141L35 165L135 250Z" fill="#205a7a" stroke="#205a7a"></path><path d="M464 92L364 71L395 126Z" fill="#297ea6" stroke="#297ea6"></path><path d="M176 141L147 69L35 165Z" fill="#081a28" stroke="#081a28"></path><path d="M288 35L203 81L292 135Z" fill="#277297" stroke="#277297"></path><path d="M315 1075L342 956L259 1000Z" fill="#112e42" stroke="#112e42"></path><path d="M315 1075L348 1072L342 956Z" fill="#297ea6" stroke="#297ea6"></path><path d="M589 1051L609 986L526 997Z" fill="#246688" stroke="#246688"></path><path d="M189 1061L259 1000L171 963Z" fill="#277297" stroke="#277297"></path><path d="M71 1028L171 963L74 965Z" fill="#15384f" stroke="#15384f"></path><path d="M71 1028L189 1061L171 963Z" fill="#246688" stroke="#246688"></path><path d="M675 330L675 191L629 279Z" fill="#19435d" stroke="#19435d"></path><path d="M607 227L597 121L510 147Z" fill="#19435d" stroke="#19435d"></path><path d="M609 986L675 949L624 861Z" fill="#297ea6" stroke="#297ea6"></path><path d="M189 1061L211 1076L259 1000Z" fill="#081a28" stroke="#081a28"></path><path d="M675 191L597 121L607 227Z" fill="#15384f" stroke="#15384f"></path><path d="M35 165L0 158L0 211Z" fill="#277297" stroke="#277297"></path><path d="M0 43L0 158L35 165Z" fill="#112e42" stroke="#112e42"></path><path d="M597 121L556 98L510 147Z" fill="#081a28" stroke="#081a28"></path><path d="M283 0L288 35L386 0Z" fill="#081a28" stroke="#081a28"></path><path d="M0 1003L71 1028L74 965Z" fill="#081a28" stroke="#081a28"></path><path d="M189 1061L186 1091L211 1076Z" fill="#112e42" stroke="#112e42"></path><path d="M510 1026L589 1051L526 997Z" fill="#277297" stroke="#277297"></path><path d="M348 1072L416 1087L460 993Z" fill="#00101c" stroke="#00101c"></path><path d="M385 1129L416 1087L348 1072Z" fill="#081a28" stroke="#081a28"></path><path d="M385 1129L348 1072L303 1156Z" fill="#00101c" stroke="#00101c"></path><path d="M165 0L147 69L203 81Z" fill="#0c2435" stroke="#0c2435"></path><path d="M203 81L147 69L176 141Z" fill="#081a28" stroke="#081a28"></path><path d="M288 35L364 71L386 0Z" fill="#19435d" stroke="#19435d"></path><path d="M364 71L288 35L292 135Z" fill="#297ea6" stroke="#297ea6"></path><path d="M416 1087L462 1087L460 993Z" fill="#1d4e6b" stroke="#1d4e6b"></path><path d="M609 986L675 1052L675 949Z" fill="#15384f" stroke="#15384f"></path><path d="M118 1098L186 1091L189 1061Z" fill="#297ea6" stroke="#297ea6"></path><path d="M211 1076L303 1156L315 1075Z" fill="#277297" stroke="#277297"></path><path d="M416 1087L385 1129L462 1087Z" fill="#0c2435" stroke="#0c2435"></path><path d="M0 927L0 1003L74 965Z" fill="#15384f" stroke="#15384f"></path><path d="M71 1028L118 1098L189 1061Z" fill="#081a28" stroke="#081a28"></path><path d="M462 1087L589 1051L510 1026Z" fill="#205a7a" stroke="#205a7a"></path><path d="M675 191L675 134L597 121Z" fill="#1d4e6b" stroke="#1d4e6b"></path><path d="M597 121L630 70L556 98Z" fill="#112e42" stroke="#112e42"></path><path d="M303 1156L348 1072L315 1075Z" fill="#246688" stroke="#246688"></path><path d="M675 1135L675 1052L589 1051Z" fill="#0c2435" stroke="#0c2435"></path><path d="M386 0L364 71L464 92Z" fill="#15384f" stroke="#15384f"></path><path d="M288 35L219 0L203 81Z" fill="#15384f" stroke="#15384f"></path><path d="M386 0L464 92L464 0Z" fill="#205a7a" stroke="#205a7a"></path><path d="M464 0L464 92L510 0Z" fill="#112e42" stroke="#112e42"></path><path d="M0 1088L118 1098L71 1028Z" fill="#205a7a" stroke="#205a7a"></path><path d="M228 1200L303 1156L211 1076Z" fill="#297ea6" stroke="#297ea6"></path><path d="M283 0L219 0L288 35Z" fill="#205a7a" stroke="#205a7a"></path><path d="M147 69L73 39L35 165Z" fill="#15384f" stroke="#15384f"></path><path d="M675 134L630 70L597 121Z" fill="#297ea6" stroke="#297ea6"></path><path d="M510 0L464 92L556 98Z" fill="#0c2435" stroke="#0c2435"></path><path d="M165 0L73 39L147 69Z" fill="#19435d" stroke="#19435d"></path><path d="M219 0L165 0L203 81Z" fill="#19435d" stroke="#19435d"></path><path d="M303 1200L303 1156L228 1200Z" fill="#297ea6" stroke="#297ea6"></path><path d="M675 134L675 89L630 70Z" fill="#15384f" stroke="#15384f"></path><path d="M618 0L556 98L630 70Z" fill="#0c2435" stroke="#0c2435"></path><path d="M618 0L510 0L556 98Z" fill="#15384f" stroke="#15384f"></path><path d="M0 1003L0 1068L71 1028Z" fill="#00101c" stroke="#00101c"></path><path d="M118 1098L161 1200L186 1091Z" fill="#19435d" stroke="#19435d"></path><path d="M532 1164L462 1087L428 1200Z" fill="#19435d" stroke="#19435d"></path><path d="M532 1164L589 1051L462 1087Z" fill="#081a28" stroke="#081a28"></path><path d="M589 1051L675 1052L609 986Z" fill="#15384f" stroke="#15384f"></path><path d="M0 1068L0 1088L71 1028Z" fill="#081a28" stroke="#081a28"></path><path d="M46 0L0 43L73 39Z" fill="#297ea6" stroke="#297ea6"></path><path d="M73 39L0 43L35 165Z" fill="#0c2435" stroke="#0c2435"></path><path d="M0 1088L89 1141L118 1098Z" fill="#00101c" stroke="#00101c"></path><path d="M165 0L46 0L73 39Z" fill="#0c2435" stroke="#0c2435"></path><path d="M428 1200L462 1087L385 1129Z" fill="#246688" stroke="#246688"></path><path d="M303 1200L343 1200L303 1156Z" fill="#205a7a" stroke="#205a7a"></path><path d="M303 1156L343 1200L385 1129Z" fill="#246688" stroke="#246688"></path><path d="M228 1200L211 1076L186 1091Z" fill="#081a28" stroke="#081a28"></path><path d="M675 0L618 0L630 70Z" fill="#297ea6" stroke="#297ea6"></path><path d="M161 1200L228 1200L186 1091Z" fill="#277297" stroke="#277297"></path><path d="M343 1200L428 1200L385 1129Z" fill="#246688" stroke="#246688"></path><path d="M530 1200L610 1154L532 1164Z" fill="#0c2435" stroke="#0c2435"></path><path d="M532 1164L610 1154L589 1051Z" fill="#15384f" stroke="#15384f"></path><path d="M46 0L0 0L0 43Z" fill="#19435d" stroke="#19435d"></path><path d="M40 1200L161 1200L89 1141Z" fill="#112e42" stroke="#112e42"></path><path d="M89 1141L161 1200L118 1098Z" fill="#1d4e6b" stroke="#1d4e6b"></path><path d="M428 1200L530 1200L532 1164Z" fill="#15384f" stroke="#15384f"></path><path d="M675 89L675 0L630 70Z" fill="#246688" stroke="#246688"></path><path d="M636 1200L675 1135L610 1154Z" fill="#112e42" stroke="#112e42"></path><path d="M610 1154L675 1135L589 1051Z" fill="#0c2435" stroke="#0c2435"></path><path d="M0 1088L40 1200L89 1141Z" fill="#0c2435" stroke="#0c2435"></path><path d="M530 1200L636 1200L610 1154Z" fill="#15384f" stroke="#15384f"></path><path d="M0 1088L0 1200L40 1200Z" fill="#246688" stroke="#246688"></path><path d="M636 1200L675 1200L675 1135Z" fill="#0c2435" stroke="#0c2435"></path></g></svg>